<svg preserveAspectRatio="none" overflow="visible" style="display: block;" width="866.312" height="166" viewBox="0 0 866.312 166" fill="none" xmlns="http://www.w3.org/2000/svg">
<foreignObject x="0" y="0" width="875.012" height="168.7"><div xmlns="http://www.w3.org/1999/xhtml" style="backdrop-filter:blur(10.85px);clip-path:url(#bgblur_0_0_4_clip_path);height:100%;width:100%"></div></foreignObject><g id="OPEN LOOT" filter="url(#filter0_d_0_4)" data-figma-bg-blur-radius="21.7">
<mask id="path-1-outside-1_0_4" maskUnits="userSpaceOnUse" x="45" y="39" width="809" height="108" fill="black">
<rect fill="white" x="45" y="39" width="809" height="108"/>
<path d="M85.7755 145C78.1269 145 71.3496 143.402 65.4438 140.207C59.6347 136.914 55.0843 132.363 51.7925 126.553C48.5975 120.646 47 113.819 47 106.073V79.9274C47 72.1806 48.5975 65.4022 51.7925 59.5922C55.0843 53.6853 59.6347 49.1341 65.4438 45.9385C71.3496 42.6462 78.1269 41 85.7755 41H101.169C108.818 41 115.547 42.6462 121.356 45.9385C127.262 49.1341 131.812 53.6853 135.007 59.5922C138.299 65.4022 139.945 72.1806 139.945 79.9274V106.073C139.945 113.819 138.299 120.646 135.007 126.553C131.812 132.363 127.262 136.914 121.356 140.207C115.547 143.402 108.818 145 101.169 145H85.7755ZM101.169 127.279C106.785 127.279 111.287 125.246 114.676 121.179C118.161 117.112 119.904 111.786 119.904 105.201V80.7989C119.904 74.2141 118.161 68.8883 114.676 64.8212C111.287 60.7542 106.785 58.7207 101.169 58.7207H85.7755C80.16 58.7207 75.6096 60.7542 72.1242 64.8212C68.7356 68.8883 67.0412 74.2141 67.0412 80.7989V105.201C67.0412 111.786 68.7356 117.112 72.1242 121.179C75.6096 125.246 80.16 127.279 85.7755 127.279H101.169ZM154.995 42.162H208.584C214.49 42.162 219.718 43.324 224.268 45.648C228.819 47.8752 232.352 51.1192 234.87 55.3799C237.387 59.5438 238.646 64.3371 238.646 69.7598V83.2682C238.646 88.8845 237.339 93.8715 234.724 98.229C232.11 102.49 228.431 105.831 223.687 108.251C219.04 110.575 213.618 111.737 207.422 111.737H175.036V143.838H154.995V42.162ZM207.131 94.3073C210.52 94.3073 213.279 93.2421 215.409 91.1117C217.539 88.8845 218.604 85.9795 218.604 82.3966V70.6313C218.604 67.2421 217.636 64.5791 215.7 62.6425C213.86 60.6089 211.391 59.5922 208.293 59.5922H175.036V94.3073H207.131ZM263.82 143.838C259.657 143.838 256.268 142.579 253.654 140.061C251.04 137.544 249.733 134.251 249.733 130.184V42.162H327.284V59.5922H269.774V83.1229H322.927V100.553H269.774V126.408H327.284V143.838H263.82ZM340.925 42.162H358.788L407.584 111.302V42.162H427.189V143.838H409.326L360.53 74.6983V143.838H340.925V42.162ZM501.089 143.838C496.829 143.838 493.392 142.628 490.778 140.207C488.261 137.689 487.002 134.397 487.002 130.33V42.162H507.043V126.408H562.229V143.838H501.089ZM604.421 145C596.772 145 589.995 143.402 584.089 140.207C578.28 136.914 573.73 132.363 570.438 126.553C567.243 120.646 565.646 113.819 565.646 106.073V79.9274C565.646 72.1806 567.243 65.4022 570.438 59.5922C573.73 53.6853 578.28 49.1341 584.089 45.9385C589.995 42.6462 596.772 41 604.421 41H619.815C627.464 41 634.192 42.6462 640.001 45.9385C645.907 49.1341 650.458 53.6853 653.653 59.5922C656.945 65.4022 658.59 72.1806 658.59 79.9274V106.073C658.59 113.819 656.945 120.646 653.653 126.553C650.458 132.363 645.907 136.914 640.001 140.207C634.192 143.402 627.464 145 619.815 145H604.421ZM619.815 127.279C625.43 127.279 629.932 125.246 633.321 121.179C636.806 117.112 638.549 111.786 638.549 105.201V80.7989C638.549 74.2141 636.806 68.8883 633.321 64.8212C629.932 60.7542 625.43 58.7207 619.815 58.7207H604.421C598.806 58.7207 594.255 60.7542 590.77 64.8212C587.381 68.8883 585.687 74.2141 585.687 80.7989V105.201C585.687 111.786 587.381 117.112 590.77 121.179C594.255 125.246 598.806 127.279 604.421 127.279H619.815ZM709.512 145C701.863 145 695.086 143.402 689.18 140.207C683.371 136.914 678.82 132.363 675.529 126.553C672.334 120.646 670.736 113.819 670.736 106.073V79.9274C670.736 72.1806 672.334 65.4022 675.529 59.5922C678.82 53.6853 683.371 49.1341 689.18 45.9385C695.086 42.6462 701.863 41 709.512 41H724.906C732.554 41 739.283 42.6462 745.092 45.9385C750.998 49.1341 755.548 53.6853 758.743 59.5922C762.035 65.4022 763.681 72.1806 763.681 79.9274V106.073C763.681 113.819 762.035 120.646 758.743 126.553C755.548 132.363 750.998 136.914 745.092 140.207C739.283 143.402 732.554 145 724.906 145H709.512ZM724.906 127.279C730.521 127.279 735.023 125.246 738.412 121.179C741.897 117.112 743.64 111.786 743.64 105.201V80.7989C743.64 74.2141 741.897 68.8883 738.412 64.8212C735.023 60.7542 730.521 58.7207 724.906 58.7207H709.512C703.896 58.7207 699.346 60.7542 695.86 64.8212C692.472 68.8883 690.777 74.2141 690.777 80.7989V105.201C690.777 111.786 692.472 117.112 695.86 121.179C699.346 125.246 703.896 127.279 709.512 127.279H724.906ZM799.03 59.5922H766.79V42.162H851.312V59.5922H819.071V143.838H799.03V59.5922Z"/>
</mask>
<path d="M85.7755 145C78.1269 145 71.3496 143.402 65.4438 140.207C59.6347 136.914 55.0843 132.363 51.7925 126.553C48.5975 120.646 47 113.819 47 106.073V79.9274C47 72.1806 48.5975 65.4022 51.7925 59.5922C55.0843 53.6853 59.6347 49.1341 65.4438 45.9385C71.3496 42.6462 78.1269 41 85.7755 41H101.169C108.818 41 115.547 42.6462 121.356 45.9385C127.262 49.1341 131.812 53.6853 135.007 59.5922C138.299 65.4022 139.945 72.1806 139.945 79.9274V106.073C139.945 113.819 138.299 120.646 135.007 126.553C131.812 132.363 127.262 136.914 121.356 140.207C115.547 143.402 108.818 145 101.169 145H85.7755ZM101.169 127.279C106.785 127.279 111.287 125.246 114.676 121.179C118.161 117.112 119.904 111.786 119.904 105.201V80.7989C119.904 74.2141 118.161 68.8883 114.676 64.8212C111.287 60.7542 106.785 58.7207 101.169 58.7207H85.7755C80.16 58.7207 75.6096 60.7542 72.1242 64.8212C68.7356 68.8883 67.0412 74.2141 67.0412 80.7989V105.201C67.0412 111.786 68.7356 117.112 72.1242 121.179C75.6096 125.246 80.16 127.279 85.7755 127.279H101.169ZM154.995 42.162H208.584C214.49 42.162 219.718 43.324 224.268 45.648C228.819 47.8752 232.352 51.1192 234.87 55.3799C237.387 59.5438 238.646 64.3371 238.646 69.7598V83.2682C238.646 88.8845 237.339 93.8715 234.724 98.229C232.11 102.49 228.431 105.831 223.687 108.251C219.04 110.575 213.618 111.737 207.422 111.737H175.036V143.838H154.995V42.162ZM207.131 94.3073C210.52 94.3073 213.279 93.2421 215.409 91.1117C217.539 88.8845 218.604 85.9795 218.604 82.3966V70.6313C218.604 67.2421 217.636 64.5791 215.7 62.6425C213.86 60.6089 211.391 59.5922 208.293 59.5922H175.036V94.3073H207.131ZM263.82 143.838C259.657 143.838 256.268 142.579 253.654 140.061C251.04 137.544 249.733 134.251 249.733 130.184V42.162H327.284V59.5922H269.774V83.1229H322.927V100.553H269.774V126.408H327.284V143.838H263.82ZM340.925 42.162H358.788L407.584 111.302V42.162H427.189V143.838H409.326L360.53 74.6983V143.838H340.925V42.162ZM501.089 143.838C496.829 143.838 493.392 142.628 490.778 140.207C488.261 137.689 487.002 134.397 487.002 130.33V42.162H507.043V126.408H562.229V143.838H501.089ZM604.421 145C596.772 145 589.995 143.402 584.089 140.207C578.28 136.914 573.73 132.363 570.438 126.553C567.243 120.646 565.646 113.819 565.646 106.073V79.9274C565.646 72.1806 567.243 65.4022 570.438 59.5922C573.73 53.6853 578.28 49.1341 584.089 45.9385C589.995 42.6462 596.772 41 604.421 41H619.815C627.464 41 634.192 42.6462 640.001 45.9385C645.907 49.1341 650.458 53.6853 653.653 59.5922C656.945 65.4022 658.59 72.1806 658.59 79.9274V106.073C658.59 113.819 656.945 120.646 653.653 126.553C650.458 132.363 645.907 136.914 640.001 140.207C634.192 143.402 627.464 145 619.815 145H604.421ZM619.815 127.279C625.43 127.279 629.932 125.246 633.321 121.179C636.806 117.112 638.549 111.786 638.549 105.201V80.7989C638.549 74.2141 636.806 68.8883 633.321 64.8212C629.932 60.7542 625.43 58.7207 619.815 58.7207H604.421C598.806 58.7207 594.255 60.7542 590.77 64.8212C587.381 68.8883 585.687 74.2141 585.687 80.7989V105.201C585.687 111.786 587.381 117.112 590.77 121.179C594.255 125.246 598.806 127.279 604.421 127.279H619.815ZM709.512 145C701.863 145 695.086 143.402 689.18 140.207C683.371 136.914 678.82 132.363 675.529 126.553C672.334 120.646 670.736 113.819 670.736 106.073V79.9274C670.736 72.1806 672.334 65.4022 675.529 59.5922C678.82 53.6853 683.371 49.1341 689.18 45.9385C695.086 42.6462 701.863 41 709.512 41H724.906C732.554 41 739.283 42.6462 745.092 45.9385C750.998 49.1341 755.548 53.6853 758.743 59.5922C762.035 65.4022 763.681 72.1806 763.681 79.9274V106.073C763.681 113.819 762.035 120.646 758.743 126.553C755.548 132.363 750.998 136.914 745.092 140.207C739.283 143.402 732.554 145 724.906 145H709.512ZM724.906 127.279C730.521 127.279 735.023 125.246 738.412 121.179C741.897 117.112 743.64 111.786 743.64 105.201V80.7989C743.64 74.2141 741.897 68.8883 738.412 64.8212C735.023 60.7542 730.521 58.7207 724.906 58.7207H709.512C703.896 58.7207 699.346 60.7542 695.86 64.8212C692.472 68.8883 690.777 74.2141 690.777 80.7989V105.201C690.777 111.786 692.472 117.112 695.86 121.179C699.346 125.246 703.896 127.279 709.512 127.279H724.906ZM799.03 59.5922H766.79V42.162H851.312V59.5922H819.071V143.838H799.03V59.5922Z" fill="black" fill-opacity="0.6" shape-rendering="crispEdges"/>
<path d="M85.7755 145C78.1269 145 71.3496 143.402 65.4438 140.207C59.6347 136.914 55.0843 132.363 51.7925 126.553C48.5975 120.646 47 113.819 47 106.073V79.9274C47 72.1806 48.5975 65.4022 51.7925 59.5922C55.0843 53.6853 59.6347 49.1341 65.4438 45.9385C71.3496 42.6462 78.1269 41 85.7755 41H101.169C108.818 41 115.547 42.6462 121.356 45.9385C127.262 49.1341 131.812 53.6853 135.007 59.5922C138.299 65.4022 139.945 72.1806 139.945 79.9274V106.073C139.945 113.819 138.299 120.646 135.007 126.553C131.812 132.363 127.262 136.914 121.356 140.207C115.547 143.402 108.818 145 101.169 145H85.7755ZM101.169 127.279C106.785 127.279 111.287 125.246 114.676 121.179C118.161 117.112 119.904 111.786 119.904 105.201V80.7989C119.904 74.2141 118.161 68.8883 114.676 64.8212C111.287 60.7542 106.785 58.7207 101.169 58.7207H85.7755C80.16 58.7207 75.6096 60.7542 72.1242 64.8212C68.7356 68.8883 67.0412 74.2141 67.0412 80.7989V105.201C67.0412 111.786 68.7356 117.112 72.1242 121.179C75.6096 125.246 80.16 127.279 85.7755 127.279H101.169ZM154.995 42.162H208.584C214.49 42.162 219.718 43.324 224.268 45.648C228.819 47.8752 232.352 51.1192 234.87 55.3799C237.387 59.5438 238.646 64.3371 238.646 69.7598V83.2682C238.646 88.8845 237.339 93.8715 234.724 98.229C232.11 102.49 228.431 105.831 223.687 108.251C219.04 110.575 213.618 111.737 207.422 111.737H175.036V143.838H154.995V42.162ZM207.131 94.3073C210.52 94.3073 213.279 93.2421 215.409 91.1117C217.539 88.8845 218.604 85.9795 218.604 82.3966V70.6313C218.604 67.2421 217.636 64.5791 215.7 62.6425C213.86 60.6089 211.391 59.5922 208.293 59.5922H175.036V94.3073H207.131ZM263.82 143.838C259.657 143.838 256.268 142.579 253.654 140.061C251.04 137.544 249.733 134.251 249.733 130.184V42.162H327.284V59.5922H269.774V83.1229H322.927V100.553H269.774V126.408H327.284V143.838H263.82ZM340.925 42.162H358.788L407.584 111.302V42.162H427.189V143.838H409.326L360.53 74.6983V143.838H340.925V42.162ZM501.089 143.838C496.829 143.838 493.392 142.628 490.778 140.207C488.261 137.689 487.002 134.397 487.002 130.33V42.162H507.043V126.408H562.229V143.838H501.089ZM604.421 145C596.772 145 589.995 143.402 584.089 140.207C578.28 136.914 573.73 132.363 570.438 126.553C567.243 120.646 565.646 113.819 565.646 106.073V79.9274C565.646 72.1806 567.243 65.4022 570.438 59.5922C573.73 53.6853 578.28 49.1341 584.089 45.9385C589.995 42.6462 596.772 41 604.421 41H619.815C627.464 41 634.192 42.6462 640.001 45.9385C645.907 49.1341 650.458 53.6853 653.653 59.5922C656.945 65.4022 658.59 72.1806 658.59 79.9274V106.073C658.59 113.819 656.945 120.646 653.653 126.553C650.458 132.363 645.907 136.914 640.001 140.207C634.192 143.402 627.464 145 619.815 145H604.421ZM619.815 127.279C625.43 127.279 629.932 125.246 633.321 121.179C636.806 117.112 638.549 111.786 638.549 105.201V80.7989C638.549 74.2141 636.806 68.8883 633.321 64.8212C629.932 60.7542 625.43 58.7207 619.815 58.7207H604.421C598.806 58.7207 594.255 60.7542 590.77 64.8212C587.381 68.8883 585.687 74.2141 585.687 80.7989V105.201C585.687 111.786 587.381 117.112 590.77 121.179C594.255 125.246 598.806 127.279 604.421 127.279H619.815ZM709.512 145C701.863 145 695.086 143.402 689.18 140.207C683.371 136.914 678.82 132.363 675.529 126.553C672.334 120.646 670.736 113.819 670.736 106.073V79.9274C670.736 72.1806 672.334 65.4022 675.529 59.5922C678.82 53.6853 683.371 49.1341 689.18 45.9385C695.086 42.6462 701.863 41 709.512 41H724.906C732.554 41 739.283 42.6462 745.092 45.9385C750.998 49.1341 755.548 53.6853 758.743 59.5922C762.035 65.4022 763.681 72.1806 763.681 79.9274V106.073C763.681 113.819 762.035 120.646 758.743 126.553C755.548 132.363 750.998 136.914 745.092 140.207C739.283 143.402 732.554 145 724.906 145H709.512ZM724.906 127.279C730.521 127.279 735.023 125.246 738.412 121.179C741.897 117.112 743.64 111.786 743.64 105.201V80.7989C743.64 74.2141 741.897 68.8883 738.412 64.8212C735.023 60.7542 730.521 58.7207 724.906 58.7207H709.512C703.896 58.7207 699.346 60.7542 695.86 64.8212C692.472 68.8883 690.777 74.2141 690.777 80.7989V105.201C690.777 111.786 692.472 117.112 695.86 121.179C699.346 125.246 703.896 127.279 709.512 127.279H724.906ZM799.03 59.5922H766.79V42.162H851.312V59.5922H819.071V143.838H799.03V59.5922Z" stroke="url(#paint0_linear_0_4)" stroke-opacity="0.8" stroke-width="4" shape-rendering="crispEdges" mask="url(#path-1-outside-1_0_4)"/>
</g>
<defs>
<filter id="filter0_d_0_4" x="0" y="0" width="875.012" height="168.7" filterUnits="userSpaceOnUse" color-interpolation-filters="sRGB">
<feFlood flood-opacity="0" result="BackgroundImageFix"/>
<feColorMatrix in="SourceAlpha" type="matrix" values="0 0 0 0 0 0 0 0 0 0 0 0 0 0 0 0 0 0 127 0" result="hardAlpha"/>
<feOffset dx="-16" dy="-10"/>
<feGaussianBlur stdDeviation="14.5"/>
<feComposite in2="hardAlpha" operator="out"/>
<feColorMatrix type="matrix" values="0 0 0 0 0 0 0 0 0 0.960784 0 0 0 0 0.627451 0 0 0 0.36 0"/>
<feBlend mode="normal" in2="BackgroundImageFix" result="effect1_dropShadow_0_4"/>
<feBlend mode="normal" in="SourceGraphic" in2="effect1_dropShadow_0_4" result="shape"/>
</filter>
<clipPath id="bgblur_0_0_4_clip_path" transform="translate(0 0)"><path d="M85.7755 145C78.1269 145 71.3496 143.402 65.4438 140.207C59.6347 136.914 55.0843 132.363 51.7925 126.553C48.5975 120.646 47 113.819 47 106.073V79.9274C47 72.1806 48.5975 65.4022 51.7925 59.5922C55.0843 53.6853 59.6347 49.1341 65.4438 45.9385C71.3496 42.6462 78.1269 41 85.7755 41H101.169C108.818 41 115.547 42.6462 121.356 45.9385C127.262 49.1341 131.812 53.6853 135.007 59.5922C138.299 65.4022 139.945 72.1806 139.945 79.9274V106.073C139.945 113.819 138.299 120.646 135.007 126.553C131.812 132.363 127.262 136.914 121.356 140.207C115.547 143.402 108.818 145 101.169 145H85.7755ZM101.169 127.279C106.785 127.279 111.287 125.246 114.676 121.179C118.161 117.112 119.904 111.786 119.904 105.201V80.7989C119.904 74.2141 118.161 68.8883 114.676 64.8212C111.287 60.7542 106.785 58.7207 101.169 58.7207H85.7755C80.16 58.7207 75.6096 60.7542 72.1242 64.8212C68.7356 68.8883 67.0412 74.2141 67.0412 80.7989V105.201C67.0412 111.786 68.7356 117.112 72.1242 121.179C75.6096 125.246 80.16 127.279 85.7755 127.279H101.169ZM154.995 42.162H208.584C214.49 42.162 219.718 43.324 224.268 45.648C228.819 47.8752 232.352 51.1192 234.87 55.3799C237.387 59.5438 238.646 64.3371 238.646 69.7598V83.2682C238.646 88.8845 237.339 93.8715 234.724 98.229C232.11 102.49 228.431 105.831 223.687 108.251C219.04 110.575 213.618 111.737 207.422 111.737H175.036V143.838H154.995V42.162ZM207.131 94.3073C210.52 94.3073 213.279 93.2421 215.409 91.1117C217.539 88.8845 218.604 85.9795 218.604 82.3966V70.6313C218.604 67.2421 217.636 64.5791 215.7 62.6425C213.86 60.6089 211.391 59.5922 208.293 59.5922H175.036V94.3073H207.131ZM263.82 143.838C259.657 143.838 256.268 142.579 253.654 140.061C251.04 137.544 249.733 134.251 249.733 130.184V42.162H327.284V59.5922H269.774V83.1229H322.927V100.553H269.774V126.408H327.284V143.838H263.82ZM340.925 42.162H358.788L407.584 111.302V42.162H427.189V143.838H409.326L360.53 74.6983V143.838H340.925V42.162ZM501.089 143.838C496.829 143.838 493.392 142.628 490.778 140.207C488.261 137.689 487.002 134.397 487.002 130.33V42.162H507.043V126.408H562.229V143.838H501.089ZM604.421 145C596.772 145 589.995 143.402 584.089 140.207C578.28 136.914 573.73 132.363 570.438 126.553C567.243 120.646 565.646 113.819 565.646 106.073V79.9274C565.646 72.1806 567.243 65.4022 570.438 59.5922C573.73 53.6853 578.28 49.1341 584.089 45.9385C589.995 42.6462 596.772 41 604.421 41H619.815C627.464 41 634.192 42.6462 640.001 45.9385C645.907 49.1341 650.458 53.6853 653.653 59.5922C656.945 65.4022 658.59 72.1806 658.59 79.9274V106.073C658.59 113.819 656.945 120.646 653.653 126.553C650.458 132.363 645.907 136.914 640.001 140.207C634.192 143.402 627.464 145 619.815 145H604.421ZM619.815 127.279C625.43 127.279 629.932 125.246 633.321 121.179C636.806 117.112 638.549 111.786 638.549 105.201V80.7989C638.549 74.2141 636.806 68.8883 633.321 64.8212C629.932 60.7542 625.43 58.7207 619.815 58.7207H604.421C598.806 58.7207 594.255 60.7542 590.77 64.8212C587.381 68.8883 585.687 74.2141 585.687 80.7989V105.201C585.687 111.786 587.381 117.112 590.77 121.179C594.255 125.246 598.806 127.279 604.421 127.279H619.815ZM709.512 145C701.863 145 695.086 143.402 689.18 140.207C683.371 136.914 678.82 132.363 675.529 126.553C672.334 120.646 670.736 113.819 670.736 106.073V79.9274C670.736 72.1806 672.334 65.4022 675.529 59.5922C678.82 53.6853 683.371 49.1341 689.18 45.9385C695.086 42.6462 701.863 41 709.512 41H724.906C732.554 41 739.283 42.6462 745.092 45.9385C750.998 49.1341 755.548 53.6853 758.743 59.5922C762.035 65.4022 763.681 72.1806 763.681 79.9274V106.073C763.681 113.819 762.035 120.646 758.743 126.553C755.548 132.363 750.998 136.914 745.092 140.207C739.283 143.402 732.554 145 724.906 145H709.512ZM724.906 127.279C730.521 127.279 735.023 125.246 738.412 121.179C741.897 117.112 743.64 111.786 743.64 105.201V80.7989C743.64 74.2141 741.897 68.8883 738.412 64.8212C735.023 60.7542 730.521 58.7207 724.906 58.7207H709.512C703.896 58.7207 699.346 60.7542 695.86 64.8212C692.472 68.8883 690.777 74.2141 690.777 80.7989V105.201C690.777 111.786 692.472 117.112 695.86 121.179C699.346 125.246 703.896 127.279 709.512 127.279H724.906ZM799.03 59.5922H766.79V42.162H851.312V59.5922H819.071V143.838H799.03V59.5922Z"/>
</clipPath><linearGradient id="paint0_linear_0_4" x1="47" y1="93" x2="851.312" y2="93" gradientUnits="userSpaceOnUse">
<stop stop-color="#87E6C5"/>
<stop offset="0.66354" stop-color="#3BBA8E"/>
<stop offset="1" stop-color="#164B39"/>
</linearGradient>
</defs>
</svg>
