<svg xmlns="http://www.w3.org/2000/svg" viewBox="0 0 818 891">
  <rect width="818" height="891" fill="#000000"/>
  <path d="M390.791 543.418C305.303 543.631 162.398 503.141 142.44 366.2C139.985 349.502 152.205 336.912 168.801 335.525C213.466 331.791 258.771 361.612 295.538 386.898C258.931 335.525 221.203 299.196 170.989 263.027C129.9 233.419 85.2348 212.987 37.2082 197.143C16.1832 190.208 -4.94851 170.843 1.02813 148.704C3.53619 139.369 11.2204 128.699 21.9464 124.965C35.714 120.164 52.2032 122.351 65.5439 128.486C125.47 156.173 232.783 267.881 266.242 319.521L353.704 454.489C342.978 427.335 330.384 403.436 318.217 377.616C286.787 310.772 272.058 254.918 285.346 180.446C295.858 121.337 279.903 119.844 285.879 103.093C286.52 101.332 292.656 105.227 293.457 106.934C304.663 130.566 294.738 139.742 311.173 144.49C344.258 154.039 375.422 164.868 406.159 179.432C446.555 198.53 478.626 239.021 482.522 286.233C509.95 219.549 556.056 147.904 601.361 90.8762C619.824 67.6703 638.982 47.1851 661.341 28.247C699.655 -4.29464 761.343 -16.031 793.521 33.1549C819.135 72.2582 835.838 153.185 784.396 174.951C764.651 183.273 745.547 173.457 739.624 153.826C735.675 140.756 738.984 127.739 751.364 120.857C769.507 110.775 789.572 114.296 806.114 129.179C807.235 118.99 806.541 108.321 803.446 98.2381C795.495 72.1515 771.482 56.6809 743.947 60.2551C698.215 66.1766 658.406 106.293 630.497 141.342C597.359 182.953 569.183 225.951 544.583 275.19C563.046 266.227 610.059 209.2 631.404 226.804C646.132 238.967 647.68 260.306 635.246 274.23C629.91 280.204 617.85 278.711 613.901 270.922C610.112 263.56 608.511 255.825 606.217 245.209C562.192 263.347 531.242 305.171 506.375 345.554C474.144 397.834 446.235 450.754 418.273 505.488C415.284 511.356 413.203 517.278 411.656 523.786C467.207 453.475 518.328 387.058 600.774 344.114C619.291 334.458 648.053 332.058 652.589 349.395C658.352 371.481 622.813 386.792 604.563 397.194L644.318 392.286C687.915 386.898 735.675 388.979 769.401 419.44C778.419 427.602 781.941 440.672 777.939 451.181C773.723 462.224 762.89 467.025 752.271 463.131L693.839 441.952C651.842 426.695 608.992 422.481 564.22 424.614C554.562 425.095 545.65 427.335 537.485 432.456C491.7 461.21 450.504 494.232 412.616 531.148C444.26 513.81 474.037 497.273 508.616 486.55C564.914 469.052 645.492 464.358 691.491 505.968C704.458 517.705 715.291 533.335 717.532 551.1C720.307 573.079 708.78 594.684 691.598 607.541L674.468 620.398C697.841 621.411 720.2 616.77 742.986 608.234C759.475 602.046 789.358 598.205 796.402 616.77C803.446 635.335 774.684 651.392 756.113 653.793C643.304 668.143 566.622 641.203 466.513 592.55C481.881 613.996 490.579 614.956 502.479 641.896C506.055 650.005 504.187 661.421 496.449 666.169C476.919 678.226 464.912 638.802 460.429 627.333C448.316 596.391 429.159 563.53 400.236 545.659C373.341 593.617 314.268 804.018 367.631 834.319C385.188 844.295 405.999 837.093 416.672 820.822C441.272 783.479 441.646 712.261 432.467 671.451L404.879 548.859C432.521 599.966 455.894 651.659 477.932 705.806C490.313 736.214 516.46 812.873 513.686 843.281C512.725 854.11 502.266 864.78 490.793 862.379C471.849 858.431 463.738 806.045 460.216 788.28C454.559 808.979 450.877 827.704 441.806 845.788C429.159 870.915 405.946 888.999 377.397 890.813C330.384 893.8 307.278 831.651 310.053 787C313.521 731.252 328.89 678.652 352.209 628.346C360.267 610.955 369.606 596.605 376.383 576.76L285.613 697.964C270.244 718.449 253.061 736.107 234.064 753.018C204.394 779.478 170.402 796.976 132.568 808.659C75.5761 826.317 78.7779 841.841 64.3165 844.294C62.3955 844.615 62.0219 836.132 63.1959 834.745C79.1514 815.487 91.2115 817.568 88.7034 804.604C82.2465 770.729 77.3905 738.721 75.7362 704.579C74.4555 678.652 80.4321 655.98 91.8518 631.921C74.3488 641.043 56.4722 641.203 42.1176 628.72C34.2732 621.891 27.6562 612.289 23.2271 602.473C-6.5494 536.003 -4.62833 454.489 54.1242 402.315C47.5606 414.852 18.798 464.251 27.336 497.593C36.0876 526.827 55.6718 550.246 82.033 565.237C97.3482 573.932 106.206 587.536 108.127 606.581C117.253 599.112 125.257 591.697 134.649 587.162C164.212 572.972 197.404 587.056 208.343 617.197C215.974 638.162 213.573 659.714 203.7 679.719C186.464 714.555 164.372 745.656 138.811 774.944L130.38 784.599C154.02 767.848 177.179 750.457 196.336 728.212L240.628 676.785C289.348 620.238 331.184 611.382 380.065 559.315L361.655 565.45C332.839 575.053 300.394 570.518 272.112 559.262C221.47 539.15 203.007 512.69 154.126 500.634L151.938 531.735C151.778 534.296 146.389 539.524 143.774 539.79C128.939 541.337 128.512 514.717 134.222 498.553C136.196 492.898 144.734 490.071 149.644 491.351L165.866 495.619L103.058 434.75C89.5572 421.68 74.7223 410.104 57.326 403.382C26.8024 391.646 21.5729 414.639 3.58955 405.996C-7.56329 400.608 37.6884 366.786 97.3482 413.892L164.265 466.705C260.906 549.233 312.241 548.806 390.631 543.098L390.791 543.418ZM433.321 235.766C412.563 200.344 307.331 154.092 307.331 154.092C325.154 189.781 342.818 220.456 363.042 252.144C375.262 271.349 413.897 301.276 436.149 290.02C452.799 281.645 447.676 260.199 433.268 235.713L433.321 235.766ZM408.294 511.463L471.956 315.093C460.91 326.776 449.116 334.512 433.428 336.432C407.547 337.606 384.761 325.656 369.019 305.171C342.497 270.709 324.407 232.459 308.612 192.235C316.243 283.352 363.256 327.15 373.555 418.106C378.251 459.557 386.415 498.66 400.129 536.856L408.401 511.463H408.294ZM395.06 537.657C389.03 526.347 320.085 455.716 305.303 441.205C278.835 415.225 251.14 394.58 218.535 377.509C210.371 373.241 200.392 371.001 190.787 370.147C177.072 368.92 177.126 393.406 187.692 411.544C240.201 501.754 399.969 546.726 395.113 537.71L395.06 537.657ZM666.837 575.106C676.976 551.633 665.717 526.88 642.717 516.798C592.983 495.032 507.869 510.13 455.733 523.68C438.23 528.214 423.022 533.442 405.839 541.924L532.95 584.068C562.886 593.991 650.615 612.662 666.891 575.106H666.837ZM100.283 800.337C123.229 767.208 142.973 737.867 161.704 704.686C175.365 680.52 184.063 635.015 160.05 624.559C140.305 615.97 120.454 637.522 112.503 655.713C105.139 672.624 101.51 691.189 100.923 709.86L98.2554 792.815C98.2554 794.469 99.6428 799.536 100.23 800.283L100.283 800.337Z" fill="#ffffff"/>
</svg>