<svg preserveAspectRatio="xMidYMid meet" width="100%" height="100%" overflow="visible" style="display: block;" viewBox="0 0 24.6422 25.5262" fill="none" xmlns="http://www.w3.org/2000/svg">
<g id="Group 12">
<g id="Groups">
<path id="Vector" fill-rule="evenodd" clip-rule="evenodd" d="M22.613 12.937C22.5098 9.61495 21.8159 6.96817 20.1761 4.62451C19.8208 4.12177 19.9288 3.44898 20.397 3.11628C20.8796 2.77127 21.4774 2.90188 21.8519 3.4268C23.1196 5.21843 23.9167 7.21954 24.3128 9.3833C24.9155 12.6043 24.7018 15.7686 23.583 18.8541C23.1556 20.0468 22.5722 21.1534 21.8423 22.1761C21.5086 22.6419 20.8484 22.7429 20.3778 22.4053C19.9 22.0603 19.78 21.4244 20.1305 20.9316C21.3045 19.2755 22.0344 17.4296 22.3561 15.4285C22.5098 14.4501 22.5626 13.4594 22.613 12.937Z" fill="var(--fill-0, #6F7073)"/>
<path id="Vector_2" fill-rule="evenodd" clip-rule="evenodd" d="M19.0652 12.6651C18.9931 10.908 18.597 9.40222 17.6511 8.07637C17.2981 7.57609 17.4134 6.93534 17.9055 6.578C18.3689 6.23791 18.9667 6.34142 19.3269 6.8343C20.0543 7.82993 20.5513 8.94138 20.8298 10.1489C21.4877 13.0348 21.1467 15.7678 19.6054 18.3037C19.5141 18.4491 19.4157 18.5871 19.3149 18.7226C18.9571 19.186 18.3281 19.2845 17.8767 18.9395C17.4038 18.5772 17.3029 17.9538 17.6559 17.4584C18.7002 15.9847 19.0748 14.3113 19.0652 12.6651Z" fill="var(--fill-0, #6F7073)"/>
</g>
<path id="Vector_3" fill-rule="evenodd" clip-rule="evenodd" d="M4.78976 9.70184H2.08634V15.8407H4.78976V9.70184ZM14.1268 22.2556V3.28696C14.038 3.34857 13.9803 3.38554 13.9251 3.43483C11.6419 5.293 9.35864 7.14624 7.0706 9.00194C6.95056 9.10299 6.89534 9.20403 6.89534 9.36421C6.90014 11.6265 6.90014 13.8889 6.89534 16.1537C6.89534 16.3188 6.94576 16.4297 7.073 16.5357C9.35624 18.384 11.6299 20.2397 13.9035 22.0905C13.9635 22.1471 14.0332 22.1866 14.1268 22.2556ZM16.2084 12.7898C16.2084 16.6441 16.2108 20.5058 16.2084 24.3602C16.2084 25.1956 15.6346 25.6811 14.8855 25.4815C14.7558 25.4495 14.6286 25.3681 14.5229 25.2819C11.5819 22.9062 8.64558 20.5256 5.7021 18.1573C5.57245 18.0513 5.37798 17.9823 5.21472 17.9823C3.86782 17.97 2.52333 17.9749 1.17403 17.9749C0.405749 17.9749 0 17.5535 0 16.7649V8.75304C0 7.98414 0.417754 7.56519 1.16923 7.56519C2.51372 7.56519 3.85822 7.56765 5.20752 7.55533C5.37318 7.55287 5.56765 7.48633 5.6997 7.38529C8.65038 5.00959 11.5939 2.63143 14.5301 0.236012C15.1544 -0.266729 15.9779 0.088147 16.1675 0.788042C16.2036 0.916191 16.2084 1.05666 16.2084 1.19221V12.7898Z" fill="var(--fill-0, #6F7073)"/>
</g>
</svg>
