<svg preserveAspectRatio="xMidYMid meet" width="100%" height="100%" overflow="visible" style="display: block;" viewBox="0 0 24 24" fill="none" xmlns="http://www.w3.org/2000/svg">
<path id="Vector" fill-rule="evenodd" clip-rule="evenodd" d="M4.16 0C3.0567 0 1.99859 0.438285 1.21844 1.21844C0.438285 1.99859 0 3.0567 0 4.16V19.84C0 20.9433 0.438285 22.0014 1.21844 22.7816C1.99859 23.5617 3.0567 24 4.16 24H19.84C20.9433 24 22.0014 23.5617 22.7816 22.7816C23.5617 22.0014 24 20.9433 24 19.84V4.16C24 3.0567 23.5617 1.99859 22.7816 1.21844C22.0014 0.438285 20.9433 0 19.84 0H4.16ZM1.6 4.16C1.6 3.48105 1.86971 2.8299 2.34981 2.34981C2.8299 1.86971 3.48105 1.6 4.16 1.6H19.84C20.519 1.6 21.1701 1.86971 21.6502 2.34981C22.1303 2.8299 22.4 3.48105 22.4 4.16V19.84C22.4 20.519 22.1303 21.1701 21.6502 21.6502C21.1701 22.1303 20.519 22.4 19.84 22.4H4.16C3.48105 22.4 2.8299 22.1303 2.34981 21.6502C1.86971 21.1701 1.6 20.519 1.6 19.84V4.16ZM2.94613 16.7701L6.35307 7.0336V6.3296H9.07307L12.8427 16.7701H10.5067L9.6192 14.3307H5.9296L5.10293 16.7701H2.94613ZM6.51413 12.2549H9.01333L7.76533 8.18347L6.51413 12.2549ZM19.8176 14.7733V16.5867C19.4475 16.736 18.4224 17.0315 17.2779 17.0315C15.8464 17.0315 13.2459 16.3456 13.2459 12.7776C13.2459 9.63307 15.5648 8.7264 17.2779 8.7264C18.8096 8.7264 20.5227 9.85493 20.5227 12.0117V13.4229H15.5648C15.7056 13.9936 16.3019 15.136 17.5595 15.136C18.8171 15.136 19.5893 14.8939 19.8176 14.7733ZM15.584 11.9115H18.4672C18.4331 11.4144 18.1045 10.4192 17.056 10.4192C16.0075 10.4192 15.6373 11.4133 15.584 11.9115Z" fill="var(--fill-0, #6F7073)"/>
</svg>
