<svg preserveAspectRatio="xMidYMid meet" width="100%" height="100%" overflow="visible" style="display: block;" viewBox="0 0 22 24" fill="none" xmlns="http://www.w3.org/2000/svg">
<path id="Vector" fill-rule="evenodd" clip-rule="evenodd" d="M0 4.16C0 3.0567 0.401761 1.99859 1.1169 1.21844C1.83204 0.438285 2.80197 0 3.81333 0H18.1867C19.198 0 20.168 0.438285 20.8831 1.21844C21.5982 1.99859 22 3.0567 22 4.16V19.84C22 20.9433 21.5982 22.0014 20.8831 22.7816C20.168 23.5617 19.198 24 18.1867 24H3.81333C2.80197 24 1.83204 23.5617 1.1169 22.7816C0.401761 22.0014 0 20.9433 0 19.84V4.16ZM3.81333 1.6C3.19096 1.6 2.59407 1.86971 2.15399 2.34981C1.7139 2.8299 1.46667 3.48105 1.46667 4.16V19.84C1.46667 20.519 1.7139 21.1701 2.15399 21.6502C2.59407 22.1303 3.19096 22.4 3.81333 22.4H18.1867C18.809 22.4 19.4059 22.1303 19.846 21.6502C20.2861 21.1701 20.5333 20.519 20.5333 19.84V4.16C20.5333 3.48105 20.2861 2.8299 19.846 2.34981C19.4059 1.86971 18.809 1.6 18.1867 1.6H3.81333ZM15.3492 8.45013C15.6085 8.45013 15.8572 8.33775 16.0405 8.13771C16.2239 7.93768 16.3269 7.66636 16.3269 7.38347C16.3269 7.10057 16.2239 6.82926 16.0405 6.62922C15.8572 6.42918 15.6085 6.3168 15.3492 6.3168C15.0898 6.3168 14.8411 6.42918 14.6578 6.62922C14.4744 6.82926 14.3714 7.10057 14.3714 7.38347C14.3714 7.66636 14.4744 7.93768 14.6578 8.13771C14.8411 8.33775 15.0898 8.45013 15.3492 8.45013ZM16.3269 17.3035V9.59893H14.3714V17.3035H16.3269ZM7.15733 7.56693L4.03431 17.3035H6.01138L6.76916 14.864H10.1503L10.9638 17.3035H13.1071L9.65067 6.86187H7.15733V7.56693ZM9.59591 12.7883H7.30498L8.45093 8.7168L9.59591 12.7883Z" fill="var(--fill-0, #6F7073)"/>
</svg>
