<svg preserveAspectRatio="xMidYMid meet" width="100%" height="100%" overflow="visible" style="display: block;" viewBox="0 0 21.9922 23.9499" fill="none" xmlns="http://www.w3.org/2000/svg">
<g id="Groups">
<path id="Vector" d="M16.6263 17.8144L14.2725 19.1564V17.88L16.0993 16.8237C17.835 15.5706 18.1229 13.7227 18.1229 13.0856V7.38949L13.1507 4.55308C13.1507 4.55308 12.3823 4.04718 11.0191 4.04718C9.65386 4.04718 8.90666 4.50863 8.90666 4.50863L7.14766 5.52042L6.04697 4.88329L8.46638 3.49683C8.46638 3.49683 9.41255 2.96977 10.9959 2.96977C12.4479 2.96977 13.591 3.54128 13.591 3.54128L19.2214 6.79681V12.9988C19.2659 13.9429 18.8256 16.2755 16.6263 17.8144ZM10.2487 7.27942C10.2487 7.27942 11.8531 6.99367 13.2184 7.76416C14.5816 8.55581 15.3944 9.01726 15.3944 9.01726V11.7436C15.3944 13.0644 14.2958 14.4064 14.2958 14.4064V9.61206L10.2487 7.27942ZM21.9922 5.2135L14.2069 0.726037C14.2069 0.726037 12.975 0 10.9959 0C8.95111 0 7.76363 0.747205 7.76363 0.747205L0.549839 4.86001L11.525 11.1721V23.9275L18.76 19.7935C18.76 19.7935 20.0576 19.0908 21.0249 17.3974C21.8822 15.9009 21.9922 14.4721 21.9922 14.4721V5.2135Z" fill="var(--fill-0, #6F7073)"/>
<path id="Vector_2" d="M1.58548e-05 8.99503L7.69853 13.4148V14.7356L3.32115 12.2273L0.550364 13.7894L7.67525 17.9022V19.1786L0.044467 14.78C0.0656342 15.2859 0.52708 16.8904 1.4288 18.0991C2.33053 19.3543 3.3656 19.8814 3.3656 19.8814L10.4249 23.9497V11.8103L1.58548e-05 5.82841V8.99503Z" fill="var(--fill-0, #6F7073)"/>
</g>
</svg>
