<svg preserveAspectRatio="xMidYMid meet" width="100%" height="100%" overflow="visible" style="display: block;" viewBox="0 0 23.4974 27.5965" fill="none" xmlns="http://www.w3.org/2000/svg">
<g id="Groups">
<path id="Vector" fill-rule="evenodd" clip-rule="evenodd" d="M6.74648 2.99508C7.0778 2.99508 7.35871 2.99261 7.63481 2.99508C8.26144 3.00986 8.91688 3.12569 9.03212 2.15964C9.04893 1.99206 9.45948 1.73823 9.67316 1.75548C9.92045 1.77026 10.343 2.00685 10.367 2.19414C10.4847 3.05669 11.0417 3.02958 11.6467 3.00001C11.9444 2.98276 12.2469 2.99508 12.5998 2.99508V5.13912H6.74648V2.99508ZM18.1963 18.0527C17.6249 18.0527 17.2503 18.585 17.2503 19.031C17.2575 21.0765 17.2575 22.1954 17.2503 24.2408C17.2503 25.51 17.2455 25.5149 16.0451 25.5149C11.4714 25.5149 8.7056 25.5248 4.12952 25.5125C1.70703 25.5051 2.01194 25.8254 2.00954 23.3783C1.99753 17.0989 2.00714 12.7 2.00714 6.42062C2.00714 5.18841 2.00954 5.18841 3.24359 5.18348C3.49569 5.18348 4.54247 5.22291 4.93381 5.16377V5.25495C4.95302 6.1865 5.31796 6.56355 6.21829 6.57588C7.36831 6.5882 8.51833 6.57588 9.67076 6.57588C10.8448 6.57588 12.0236 6.57834 13.2025 6.57588C13.8579 6.57341 14.2997 6.28261 14.3165 5.56793C14.3213 5.4176 14.3165 5.2722 14.3165 5.12187C15.0175 5.15144 16.2228 5.11448 16.5253 5.10708C17.0775 5.09723 17.3392 5.3486 17.3128 5.92281C17.3224 5.7158 17.3464 5.3067 17.3464 5.80698C17.3464 6.4428 17.6561 6.84203 18.398 6.84203C19.2119 6.84203 19.4135 6.14953 19.4135 5.66897C19.4135 3.71962 18.9646 3.09612 17.0271 3.09612C16.8254 3.09612 15.1136 3.05422 14.3165 3.0764C14.3117 2.92854 14.3189 2.78067 14.3165 2.63034C14.2997 1.9822 13.9011 1.65444 13.2985 1.58543C13.0464 1.55832 12.7943 1.56079 12.5398 1.57804C12.014 1.61747 11.6491 1.53614 11.3202 0.974256C10.6455 -0.176626 8.9649 -0.363922 8.23983 0.715493C7.66122 1.57557 7.00818 1.5879 6.19908 1.58543C5.33956 1.5805 4.96263 1.96495 4.93381 2.83489C4.93141 2.92607 4.93622 3.01726 4.93381 3.11091C4.3408 3.04683 2.39848 3.09366 2.03595 3.09612C0.566608 3.10105 0.00240088 3.67526 0.00240088 5.18595C0 8.55727 0 11.9261 0 15.295C0 18.723 0 22.1535 0.00240088 25.579C0.00960353 26.9147 0.602622 27.585 1.88709 27.5875C7.0754 27.5998 12.2685 27.5998 17.4592 27.585C18.7101 27.5826 19.3079 26.9467 19.3199 25.6529C19.3367 23.435 19.3247 21.217 19.3247 18.9965C19.3247 18.5505 19.075 18.0527 18.1963 18.0527Z" fill="var(--fill-0, #6F7073)"/>
<path id="Vector_2" fill-rule="evenodd" clip-rule="evenodd" d="M4.78329 21.3415H6.1782V22.83H4.78329V21.3415ZM3.64767 23.9735H7.32356V20.1832H3.64767V23.9735Z" fill="var(--fill-0, #6F7073)"/>
<path id="Vector_3" fill-rule="evenodd" clip-rule="evenodd" d="M6.20911 17.0626H4.78058V15.6283H6.20911V17.0626ZM3.64977 18.2751H7.32072V14.4577H3.64977V18.2751Z" fill="var(--fill-0, #6F7073)"/>
<path id="Vector_4" fill-rule="evenodd" clip-rule="evenodd" d="M14.4583 19.8436C14.1102 20.3636 13.7668 20.8787 13.4235 21.3987C13.2434 21.2582 13.0658 21.1153 12.8881 20.9773C13.1282 20.4129 13.3035 19.8067 13.63 19.3064C15.3898 16.6276 17.1761 13.9709 18.9527 11.3044L19.769 11.8589C17.9996 14.518 16.2277 17.1821 14.4583 19.8436ZM23.0438 7.32193C22.6717 6.98184 22.2155 6.72554 21.8122 6.41996C21.32 6.04536 20.9407 6.13655 20.6382 6.68118C20.5301 6.8808 20.3596 7.07056 20.278 7.26525L19.2168 8.90902C19.0824 9.0421 18.9695 9.22693 18.8567 9.39697C16.8832 12.3666 14.9529 15.3707 12.9073 18.2886C12.0238 19.5479 11.9085 21.0044 11.546 22.4066C11.4092 22.9118 11.9037 23.3135 12.2999 23.0326C13.2818 22.3376 14.4343 21.7215 15.1065 20.7678C17.6611 17.1648 20.0595 13.4386 22.4916 9.75185C22.7005 9.43147 23.4688 8.32495 23.4952 8.12287C23.524 7.87889 23.2647 7.52401 23.0438 7.32193Z" fill="var(--fill-0, #6F7073)"/>
<path id="Vector_5" fill-rule="evenodd" clip-rule="evenodd" d="M11.8388 16.8926C12.0933 16.8138 12.2854 16.5106 12.5015 16.3061C12.2974 16.1213 12.1029 15.796 11.8772 15.7787C11.133 15.7097 10.3743 15.7097 9.63242 15.7812C9.42354 15.7984 9.14984 16.1262 9.08742 16.3628C9.05621 16.4909 9.38753 16.8335 9.59641 16.8828C9.96854 16.969 10.3719 16.9074 10.7608 16.9074V16.9148C11.121 16.9148 11.5075 16.9937 11.8388 16.8926Z" fill="var(--fill-0, #6F7073)"/>
<path id="Vector_6" fill-rule="evenodd" clip-rule="evenodd" d="M13.5884 12.2614C13.8429 12.2294 14.059 11.8995 14.2871 11.6976C14.0758 11.5154 13.8645 11.1805 13.6412 11.1707C12.3279 11.119 11.0098 11.119 9.69176 11.1707C9.47568 11.1805 9.2644 11.5105 9.05313 11.6976C9.27881 11.8946 9.48048 12.2245 9.72778 12.2614C10.3328 12.3427 10.957 12.2885 11.5741 12.2885C12.2463 12.2885 12.9282 12.3378 13.5884 12.2614Z" fill="var(--fill-0, #6F7073)"/>
<path id="Vector_7" fill-rule="evenodd" clip-rule="evenodd" d="M15.6821 9.52278C15.4348 9.32334 15.1899 8.95894 14.9354 8.95648C13.2044 8.90231 11.4638 8.90477 9.73032 8.95648C9.48303 8.95894 9.24054 9.28641 9.00045 9.46861C9.25014 9.66559 9.49983 10.0054 9.76633 10.0251C10.6306 10.1014 11.4998 10.0546 12.3641 10.0595C13.2068 10.0595 14.0471 10.0989 14.8826 10.0275C15.1611 10.0078 15.4204 9.70006 15.6821 9.52278Z" fill="var(--fill-0, #6F7073)"/>
<path id="Vector_8" fill-rule="evenodd" clip-rule="evenodd" d="M6.2162 11.3626H4.76604V9.90364H6.2162V11.3626ZM7.33261 8.74537H3.61124V12.5036H7.33261V8.74537Z" fill="var(--fill-0, #6F7073)"/>
<path id="Vector_9" fill-rule="evenodd" clip-rule="evenodd" d="M17.3159 5.9423C17.3159 5.93741 17.3135 5.93007 17.3135 5.92273C17.311 6.03033 17.3061 6.09147 17.3159 5.9423Z" fill="var(--fill-0, #6F7073)"/>
</g>
</svg>
