<svg preserveAspectRatio="xMidYMid meet" width="100%" height="100%" overflow="visible" style="display: block;" viewBox="0 0 24 24" fill="none" xmlns="http://www.w3.org/2000/svg">
<path id="Vector" fill-rule="evenodd" clip-rule="evenodd" d="M4.16 0C3.0567 0 1.99859 0.438285 1.21844 1.21844C0.438285 1.99859 0 3.0567 0 4.16V19.84C0 20.9433 0.438285 22.0014 1.21844 22.7816C1.99859 23.5617 3.0567 24 4.16 24H19.84C20.9433 24 22.0014 23.5617 22.7816 22.7816C23.5617 22.0014 24 20.9433 24 19.84V4.16C24 3.0567 23.5617 1.99859 22.7816 1.21844C22.0014 0.438285 20.9433 0 19.84 0H4.16ZM1.6 4.16C1.6 3.48105 1.86971 2.8299 2.34981 2.34981C2.8299 1.86971 3.48105 1.6 4.16 1.6H19.84C20.519 1.6 21.1701 1.86971 21.6502 2.34981C22.1303 2.8299 22.4 3.48105 22.4 4.16V19.84C22.4 20.519 22.1303 21.1701 21.6502 21.6502C21.1701 22.1303 20.519 22.4 19.84 22.4H4.16C3.48105 22.4 2.8299 22.1303 2.34981 21.6502C1.86971 21.1701 1.6 20.519 1.6 19.84V4.16ZM5.6 6.13333H9.33333C9.8236 6.13333 10.3091 6.2299 10.762 6.41752C11.215 6.60513 11.6265 6.88013 11.9732 7.2268C12.3199 7.57347 12.5949 7.98503 12.7825 8.43798C12.9701 8.89093 13.0667 9.3764 13.0667 9.86667C13.0667 10.3569 12.9701 10.8424 12.7825 11.2954C12.5949 11.7483 12.3199 12.1599 11.9732 12.5065C11.6265 12.8532 11.215 13.1282 10.762 13.3158C10.3091 13.5034 9.8236 13.6 9.33333 13.6H7.73333V16.8H5.6V6.13333ZM7.73333 11.4667H9.33333C9.75768 11.4667 10.1646 11.2981 10.4647 10.998C10.7648 10.698 10.9333 10.291 10.9333 9.86667C10.9333 9.44232 10.7648 9.03535 10.4647 8.7353C10.1646 8.43524 9.75768 8.26667 9.33333 8.26667H7.73333V11.4667ZM14.6667 8.8V16.8H16.8V12.2667C16.9978 11.9116 17.2789 11.61 17.6192 11.3877C18.0213 11.1296 18.6016 10.9333 19.4667 10.9333V8.8C18.4256 8.8 17.5392 9.00907 16.8 9.39733V8.8H14.6667Z" fill="var(--fill-0, #6F7073)"/>
</svg>
