<svg preserveAspectRatio="xMidYMid meet" width="100%" height="100%" overflow="visible" style="display: block;" viewBox="0 0 17 24" fill="none" xmlns="http://www.w3.org/2000/svg">
<g id="Group">
<g id="Vector">
<path d="M6.5803 20.7663L6.5923 20.7643C6.6003 20.7657 6.60563 20.7717 6.6083 20.7823L6.6253 21.2093L6.6213 21.2263L6.6093 21.2423L6.5053 21.3163L6.4933 21.3203L6.4783 21.3163L6.3743 21.2423L6.3643 21.2293L6.3593 21.2093L6.3763 20.7813L6.3803 20.7713C6.38563 20.7647 6.39363 20.7627 6.4043 20.7653L6.4753 20.8013L6.4893 20.8053L6.5093 20.8013L6.5803 20.7663Z" fill="var(--fill-0, #6F7073)"/>
<path d="M6.8423 20.6533L6.8563 20.6513C6.8663 20.6533 6.87296 20.6607 6.8763 20.6733L6.9103 21.2873L6.9063 21.3013C6.89963 21.31 6.88996 21.3127 6.8773 21.3093L6.6763 21.2173L6.6683 21.2093L6.6633 21.1973L6.6453 20.7673L6.6483 20.7563L6.6583 20.7463L6.8423 20.6533Z" fill="var(--fill-0, #6F7073)"/>
<path d="M6.12659 20.6509C6.13162 20.6498 6.13689 20.6507 6.1413 20.6533L6.3253 20.7453L6.3353 20.7553L6.3383 20.7673L6.3203 21.1973L6.3173 21.2083L6.3073 21.2163L6.1063 21.3093L6.0913 21.3113C6.08063 21.3073 6.07496 21.2993 6.0743 21.2873L6.1083 20.6733L6.1143 20.6593C6.11716 20.6551 6.12156 20.652 6.12659 20.6509Z" fill="var(--fill-0, #6F7073)"/>
</g>
<path id="Vector_2" fill-rule="evenodd" clip-rule="evenodd" d="M12.1397 9.28246e-09C13.1261 -6.06119e-05 14.089 0.296806 14.9005 0.851093C15.7119 1.40538 16.3334 2.1908 16.6821 3.10284C17.0309 4.01487 17.0904 5.01027 16.8528 5.95657C16.6151 6.90286 16.0916 7.75518 15.3518 8.40009C16.2566 9.18708 16.8331 10.2786 16.969 11.4623C17.1049 12.6461 16.7907 13.8375 16.0874 14.805C15.3841 15.7724 14.3419 16.4468 13.1636 16.6969C11.9852 16.947 10.7549 16.755 9.71185 16.1582V19.2002C9.7118 20.0023 9.50844 20.7916 9.12034 21.4959C8.73223 22.2003 8.17177 22.7973 7.49014 23.2324C6.80851 23.6675 6.02745 23.9268 5.21833 23.9866C4.40921 24.0465 3.59782 23.9049 2.85829 23.5749C2.11876 23.2449 1.47467 22.737 0.984867 22.0976C0.495064 21.4581 0.175164 20.7075 0.0543934 19.9144C-0.0663768 19.1213 0.0158338 18.3109 0.293514 17.5572C0.571193 16.8036 1.03549 16.1307 1.64398 15.6002C1.12735 15.1497 0.713597 14.5957 0.430203 13.975C0.14681 13.3543 0.000265243 12.6811 0.000303018 12.0001C0.000265243 11.3191 0.14681 10.6459 0.430203 10.0252C0.713597 9.40455 1.12735 8.85056 1.64398 8.40009C0.90423 7.75518 0.380695 6.90286 0.143049 5.95657C-0.0945964 5.01027 -0.0350839 4.01487 0.313668 3.10284C0.662419 2.1908 1.28387 1.40538 2.09532 0.851093C2.90677 0.296806 3.86974 -6.06119e-05 4.85608 9.28246e-09H12.1397ZM7.28396 16.8002H4.85608C4.37589 16.8002 3.90648 16.9409 3.50721 17.2047C3.10795 17.4684 2.79676 17.8432 2.613 18.2818C2.42924 18.7203 2.38116 19.2029 2.47484 19.6684C2.56852 20.134 2.79975 20.5616 3.1393 20.8973C3.47885 21.2329 3.91146 21.4615 4.38242 21.5541C4.85338 21.6467 5.34155 21.5992 5.78519 21.4175C6.22883 21.2359 6.60801 20.9283 6.87479 20.5336C7.14157 20.1389 7.28396 19.6749 7.28396 19.2002V16.8002ZM7.28396 9.6001H4.85608C4.21216 9.6001 3.59462 9.85296 3.1393 10.3031C2.68398 10.7531 2.42819 11.3636 2.42819 12.0001C2.42819 12.6367 2.68398 13.2471 3.1393 13.6972C3.59462 14.1473 4.21216 14.4002 4.85608 14.4002H7.28396V9.6001ZM12.1397 9.6001C11.4958 9.6001 10.8783 9.85296 10.423 10.3031C9.96764 10.7531 9.71185 11.3636 9.71185 12.0001C9.71185 12.6367 9.96764 13.2471 10.423 13.6972C10.8783 14.1473 11.4958 14.4002 12.1397 14.4002C12.7837 14.4002 13.4012 14.1473 13.8565 13.6972C14.3118 13.2471 14.5676 12.6367 14.5676 12.0001C14.5676 11.3636 14.3118 10.7531 13.8565 10.3031C13.4012 9.85296 12.7837 9.6001 12.1397 9.6001ZM12.1397 2.40003H9.71185V7.20008H12.1397C12.7698 7.20287 13.3762 6.96345 13.8309 6.53242C14.2857 6.10138 14.5531 5.51248 14.5768 4.89013C14.6004 4.26777 14.3784 3.66071 13.9576 3.19717C13.5369 2.73364 12.9503 2.44995 12.3218 2.40603L12.1397 2.40003ZM7.28396 2.40003H4.85608C4.21216 2.40003 3.59462 2.65289 3.1393 3.10298C2.68398 3.55307 2.42819 4.16353 2.42819 4.80005C2.42819 5.43658 2.68398 6.04703 3.1393 6.49713C3.59462 6.94722 4.21216 7.20008 4.85608 7.20008H7.28396V2.40003Z" fill="var(--fill-0, #6F7073)"/>
</g>
</svg>
