<svg preserveAspectRatio="xMidYMid meet" width="100%" height="100%" overflow="visible" style="display: block;" viewBox="0 0 24 24" fill="none" xmlns="http://www.w3.org/2000/svg">
<path id="Vector" fill-rule="evenodd" clip-rule="evenodd" d="M0 4.16C0 3.0567 0.438285 1.99859 1.21844 1.21844C1.99859 0.438285 3.0567 0 4.16 0H19.84C20.9433 0 22.0014 0.438285 22.7816 1.21844C23.5617 1.99859 24 3.0567 24 4.16V19.84C24 20.9433 23.5617 22.0014 22.7816 22.7816C22.0014 23.5617 20.9433 24 19.84 24H4.16C3.0567 24 1.99859 23.5617 1.21844 22.7816C0.438285 22.0014 0 20.9433 0 19.84V4.16ZM4.16 1.6C3.48105 1.6 2.8299 1.86971 2.34981 2.34981C1.86971 2.8299 1.6 3.48105 1.6 4.16V19.84C1.6 20.519 1.86971 21.1701 2.34981 21.6502C2.8299 22.1303 3.48105 22.4 4.16 22.4H19.84C20.519 22.4 21.1701 22.1303 21.6502 21.6502C22.1303 21.1701 22.4 20.519 22.4 19.84V4.16C22.4 3.48105 22.1303 2.8299 21.6502 2.34981C21.1701 1.86971 20.519 1.6 19.84 1.6H4.16ZM18.32 11.6096C17.4059 11.4037 16.4373 11.2416 15.7355 11.2939C15.3803 11.3195 14.9269 11.4304 15.3835 11.7973C15.76 12.0981 16.2048 12.2869 16.6507 12.4747C17.1093 12.6688 17.5701 12.864 17.9605 13.1851C18.5056 13.6331 18.9333 14.2859 18.9333 15.2C18.9333 16.112 18.5024 16.8107 17.8155 17.2267C17.2085 17.5936 16.4757 17.6981 15.8411 17.7141C14.8149 17.7397 13.6843 17.5349 12.8416 17.328V15.1221C13.6181 15.344 14.8235 15.6053 15.7877 15.5808C16.2891 15.5691 16.5845 15.4773 16.7189 15.3963C16.9323 15.2683 16.7381 14.9419 16.6069 14.8341C16.2315 14.5248 15.7803 14.3349 15.3269 14.144C14.8789 13.9552 14.4288 13.7653 14.0491 13.4613C13.5051 13.024 13.0667 12.3787 13.0667 11.4667C13.0667 10.7253 13.376 10.1013 13.9413 9.69067C14.4448 9.328 15.0549 9.20427 15.5765 9.16587C16.4565 9.1008 17.472 9.25333 18.32 9.4272V11.6096ZM8.8 6.66667H5.06667V17.3333H7.2V14.1333H8.8C9.79014 14.1333 10.7397 13.74 11.4399 13.0399C12.14 12.3397 12.5333 11.3901 12.5333 10.4C12.5333 9.40986 12.14 8.46027 11.4399 7.76014C10.7397 7.06 9.79014 6.66667 8.8 6.66667ZM8.8 12H7.2V8.8H8.8C9.22435 8.8 9.63131 8.96857 9.93137 9.26863C10.2314 9.56869 10.4 9.97565 10.4 10.4C10.4 10.8243 10.2314 11.2313 9.93137 11.5314C9.63131 11.8314 9.22435 12 8.8 12Z" fill="var(--fill-0, #6F7073)"/>
</svg>
